<?xml version="1.0" encoding="UTF-8"?>
<!DOCTYPE svg PUBLIC "-//W3C//DTD SVG 1.1//EN" "http://www.w3.org/Graphics/SVG/1.1/DTD/svg11.dtd">
<svg xmlns="http://www.w3.org/2000/svg" version="1.1" width="200px" height="200px" style="shape-rendering:geometricPrecision; text-rendering:geometricPrecision; image-rendering:optimizeQuality; fill-rule:evenodd; clip-rule:evenodd" xmlns:xlink="http://www.w3.org/1999/xlink">
<g><path style="opacity:1" fill="#121111" d="M -0.5,36.5 C 66.1667,36.5 132.833,36.5 199.5,36.5C 199.5,78.5 199.5,120.5 199.5,162.5C 132.833,162.5 66.1667,162.5 -0.5,162.5C -0.5,120.5 -0.5,78.5 -0.5,36.5 Z"/></g>
<g><path style="opacity:1" fill="#797979" d="M 36.5,45.5 C 38.8333,44.1667 41.1667,44.1667 43.5,45.5C 42.5489,46.9187 42.2155,48.5853 42.5,50.5C 41.8333,50.1667 41.1667,49.8333 40.5,49.5C 39.791,48.596 38.791,48.2627 37.5,48.5C 37.7373,47.209 37.404,46.209 36.5,45.5 Z"/></g>
<g><path style="opacity:1" fill="#999999" d="M 42.5,50.5 C 42.2155,48.5853 42.5489,46.9187 43.5,45.5C 43.5,47.1667 43.5,48.8333 43.5,50.5C 44.5,50.5 45.5,50.5 46.5,50.5C 46.5,48.5 46.5,46.5 46.5,44.5C 50.5546,44.1758 54.5546,44.5091 58.5,45.5C 54.6395,46.5976 54.6395,47.4309 58.5,48C 53.1667,49 53.1667,50 58.5,51C 56.8659,51.4935 55.1992,51.6602 53.5,51.5C 53.0929,44.9514 52.0929,44.9514 50.5,51.5C 49.7022,49.9223 49.2022,48.2556 49,46.5C 49.0362,50.4658 47.2029,52.2991 43.5,52C 42.944,51.6174 42.6107,51.1174 42.5,50.5 Z"/></g>
<g><path style="opacity:1" fill="#696969" d="M 59.5,45.5 C 61.1667,44.1667 62.8333,44.1667 64.5,45.5C 63.596,46.209 63.2627,47.209 63.5,48.5C 62.5,48.5 61.5,48.5 60.5,48.5C 60.7373,47.209 60.404,46.209 59.5,45.5 Z"/></g>
<g><path style="opacity:1" fill="#b0b0b0" d="M 128.5,44.5 C 127.282,45.1614 125.949,45.8281 124.5,46.5C 125.376,47.2508 126.376,47.7508 127.5,48C 123.735,49.3772 124.068,50.3772 128.5,51C 126.527,51.4955 124.527,51.6621 122.5,51.5C 122.5,49.1667 122.5,46.8333 122.5,44.5C 124.5,44.5 126.5,44.5 128.5,44.5 Z"/></g>
<g><path style="opacity:1" fill="#6c6c6c" d="M 163.5,45.5 C 165.167,44.1667 166.833,44.1667 168.5,45.5C 167.596,46.209 167.263,47.209 167.5,48.5C 166.5,48.5 165.5,48.5 164.5,48.5C 164.737,47.209 164.404,46.209 163.5,45.5 Z"/></g>
<g><path style="opacity:1" fill="#e0e0e0" d="M 19.5,45.5 C 19.1667,45.5 18.8333,45.5 18.5,45.5C 17.5,45.5 16.5,45.5 15.5,45.5C 15.5,47.1667 15.5,48.8333 15.5,50.5C 16.5,50.5 17.5,50.5 18.5,50.5C 19.3957,49.4937 20.0623,49.4937 20.5,50.5C 18.7354,51.4614 16.7354,51.7947 14.5,51.5C 14.5,49.1667 14.5,46.8333 14.5,44.5C 16.4147,44.2155 18.0813,44.5489 19.5,45.5 Z"/></g>
<g><path style="opacity:1" fill="#010101" d="M 18.5,45.5 C 18.5774,46.7498 19.244,47.5831 20.5,48C 19.244,48.4169 18.5774,49.2502 18.5,50.5C 17.5,50.5 16.5,50.5 15.5,50.5C 15.5,48.8333 15.5,47.1667 15.5,45.5C 16.5,45.5 17.5,45.5 18.5,45.5 Z"/></g>
<g><path style="opacity:1" fill="#f1f1f1" d="M 36.5,45.5 C 37.404,46.209 37.7373,47.209 37.5,48.5C 38.791,48.2627 39.791,48.596 40.5,49.5C 38.8762,49.3601 37.7096,50.0267 37,51.5C 36.5045,49.5273 36.3379,47.5273 36.5,45.5 Z"/></g>
<g><path style="opacity:1" fill="#b3b3b3" d="M 84.5,44.5 C 86.288,44.2148 87.9547,44.5481 89.5,45.5C 85.6395,46.5976 85.6395,47.4309 89.5,48C 84.1667,49 84.1667,50 89.5,51C 87.8659,51.4935 86.1992,51.6602 84.5,51.5C 84.5,49.1667 84.5,46.8333 84.5,44.5 Z"/></g>
<g><path style="opacity:1" fill="#ececec" d="M 93.5,48.5 C 92.8826,48.3893 92.3826,48.056 92,47.5C 91.6667,48.8333 91.3333,50.1667 91,51.5C 90.1923,49.4213 90.359,47.4213 91.5,45.5C 92.9185,46.0047 93.5852,47.0047 93.5,48.5 Z"/></g>
<g><path style="opacity:1" fill="#cdcdcd" d="M 93.5,48.5 C 94.1174,48.6107 94.6174,48.944 95,49.5C 95.3333,48.1667 95.6667,46.8333 96,45.5C 96.8077,47.5787 96.641,49.5787 95.5,51.5C 94.0815,50.9953 93.4148,49.9953 93.5,48.5 Z"/></g>
<g><path style="opacity:1" fill="#b4b4b4" d="M 103.5,44.5 C 109.261,44.7088 109.594,45.5422 104.5,47C 109.721,47.5423 109.721,48.3756 104.5,49.5C 109.657,50.9867 109.324,51.6534 103.5,51.5C 103.5,49.1667 103.5,46.8333 103.5,44.5 Z"/></g>
<g><path style="opacity:1" fill="#6b6b6b" d="M 145.5,44.5 C 145.5,46.8333 145.5,49.1667 145.5,51.5C 144.5,51.5 143.5,51.5 142.5,51.5C 142.5,49.1667 142.5,46.8333 142.5,44.5C 143.5,44.5 144.5,44.5 145.5,44.5 Z"/></g>
<g><path style="opacity:1" fill="#8d8d8d" d="M 152.5,44.5 C 155.898,44.1796 159.232,44.513 162.5,45.5C 158.639,46.5976 158.639,47.4309 162.5,48C 158.777,49.0391 158.777,50.2058 162.5,51.5C 159.167,51.5 155.833,51.5 152.5,51.5C 152.5,49.1667 152.5,46.8333 152.5,44.5 Z"/></g>
<g><path style="opacity:1" fill="#989998" d="M 169.5,45.5 C 170.693,45.9704 171.36,46.9704 171.5,48.5C 171.167,49.5 170.833,50.5 170.5,51.5C 169.534,49.604 169.201,47.604 169.5,45.5 Z"/></g>
<g><path style="opacity:1" fill="#959595" d="M 20.5,50.5 C 20.0623,49.4937 19.3957,49.4937 18.5,50.5C 18.5774,49.2502 19.244,48.4169 20.5,48C 19.244,47.5831 18.5774,46.7498 18.5,45.5C 18.8333,45.5 19.1667,45.5 19.5,45.5C 22.6049,44.5721 25.6049,44.2388 28.5,44.5C 29.8524,45.5175 30.8524,46.8508 31.5,48.5C 32.5,47.1667 33.5,45.8333 34.5,44.5C 35.8333,46.8333 35.8333,49.1667 34.5,51.5C 33.5,50.1667 32.5,50.1667 31.5,51.5C 30.8076,50.9747 30.3076,50.3081 30,49.5C 29.3946,51.4812 28.3946,51.8146 27,50.5C 24.8441,53.0613 22.6774,53.0613 20.5,50.5 Z"/></g>
<g><path style="opacity:1" fill="#000000" d="M 22.5,46.5 C 23.5,46.5 24.5,46.5 25.5,46.5C 25.5,47.8333 25.5,49.1667 25.5,50.5C 24.5,50.5 23.5,50.5 22.5,50.5C 22.5,49.1667 22.5,47.8333 22.5,46.5 Z"/></g>
<g><path style="opacity:1" fill="#3f3f3f" d="M 74.5,44.5 C 75.1667,44.8333 75.8333,45.1667 76.5,45.5C 76.5,47.5 76.5,49.5 76.5,51.5C 75.8333,51.5 75.1667,51.5 74.5,51.5C 75.3029,50.5768 75.4696,49.5768 75,48.5C 73.4905,47.9103 71.9905,47.2436 70.5,46.5C 71.6507,45.269 72.8173,45.269 74,46.5C 74.4643,45.9056 74.631,45.2389 74.5,44.5 Z"/></g>
<g><path style="opacity:1" fill="#a1a1a1" d="M 76.5,51.5 C 76.5,49.5 76.5,47.5 76.5,45.5C 77.6009,44.4017 78.9343,44.235 80.5,45C 81.4506,45.7175 81.6172,46.5509 81,47.5C 79.9887,46.6634 78.8221,46.33 77.5,46.5C 77.5,47.8333 77.5,49.1667 77.5,50.5C 78.8221,50.67 79.9887,50.3366 81,49.5C 80.8307,52.5154 79.3307,53.1821 76.5,51.5 Z"/></g>
<g><path style="opacity:1" fill="#c3c3c3" d="M 115.5,48.5 C 114.833,48.5 114.167,48.5 113.5,48.5C 113.5,47.1667 113.5,45.8333 113.5,44.5C 116.166,44.0658 117.333,45.0658 117,47.5C 114.821,46.1602 114.321,46.4935 115.5,48.5 Z"/></g>
<g><path style="opacity:1" fill="#818181" d="M 133.5,45.5 C 135.78,45.0032 138.447,44.6699 141.5,44.5C 143.257,51.364 140.924,53.6974 134.5,51.5C 134.795,49.2646 134.461,47.2646 133.5,45.5 Z"/></g>
<g><path style="opacity:1" fill="#000000" d="M 137.5,46.5 C 140.797,46.3287 141.131,46.9954 138.5,48.5C 141.131,50.0046 140.797,50.6713 137.5,50.5C 137.5,49.1667 137.5,47.8333 137.5,46.5 Z"/></g>
<g><path style="opacity:1" fill="#9a9a9a" d="M 184.5,45.5 C 183.432,46.4345 182.099,46.7678 180.5,46.5C 180.5,47.8333 180.5,49.1667 180.5,50.5C 181.552,50.6495 182.552,50.4828 183.5,50C 182.304,49.3457 182.304,48.8457 183.5,48.5C 184.298,48.9569 184.631,49.6236 184.5,50.5C 182.802,53.1239 180.969,53.1239 179,50.5C 176.512,51.4122 174.845,50.4122 174,47.5C 173.301,52.2807 172.801,52.4474 172.5,48C 172.892,43.8882 174.059,44.0549 176,48.5C 176.219,47.062 176.719,45.7287 177.5,44.5C 179.864,44.436 182.197,44.7693 184.5,45.5 Z"/></g>
<g><path style="opacity:1" fill="#3d3d3d" d="M 184.5,45.5 C 185.833,47.1667 185.833,48.8333 184.5,50.5C 184.631,49.6236 184.298,48.9569 183.5,48.5C 182.304,48.8457 182.304,49.3457 183.5,50C 182.552,50.4828 181.552,50.6495 180.5,50.5C 180.5,49.1667 180.5,47.8333 180.5,46.5C 182.099,46.7678 183.432,46.4345 184.5,45.5 Z"/></g>
<g><path style="opacity:1" fill="#e6e6e6" d="M 59.5,45.5 C 60.404,46.209 60.7373,47.209 60.5,48.5C 61.5,48.5 62.5,48.5 63.5,48.5C 63.2627,47.209 63.596,46.209 64.5,45.5C 64.6621,47.5273 64.4955,49.5273 64,51.5C 62.6667,48.8333 61.3333,48.8333 60,51.5C 59.5045,49.5273 59.3379,47.5273 59.5,45.5 Z"/></g>
<g><path style="opacity:1" fill="#cbcbcb" d="M 163.5,45.5 C 164.404,46.209 164.737,47.209 164.5,48.5C 165.5,48.5 166.5,48.5 167.5,48.5C 167.263,47.209 167.596,46.209 168.5,45.5C 168.662,47.5273 168.495,49.5273 168,51.5C 166.667,48.8333 165.333,48.8333 164,51.5C 163.505,49.5273 163.338,47.5273 163.5,45.5 Z"/></g>
<g><path style="opacity:1" fill="#c5c5c5" d="M 113.5,48.5 C 113.843,50.2252 114.843,50.7252 116.5,50C 115.944,49.6174 115.611,49.1174 115.5,48.5C 117.359,48.4609 118.692,49.2942 119.5,51C 117.19,51.4966 114.857,51.6633 112.5,51.5C 112.263,50.209 112.596,49.209 113.5,48.5 Z"/></g>
<g><path style="opacity:1" fill="#343434" d="M 113.5,48.5 C 114.167,48.5 114.833,48.5 115.5,48.5C 115.611,49.1174 115.944,49.6174 116.5,50C 114.843,50.7252 113.843,50.2252 113.5,48.5 Z"/></g>
<g><path style="opacity:1" fill="#c1c1c1" d="M 130.5,45.5 C 131.315,46.4293 132.148,47.4293 133,48.5C 133.483,47.552 133.649,46.552 133.5,45.5C 134.461,47.2646 134.795,49.2646 134.5,51.5C 132.926,51.0629 131.759,50.0629 131,48.5C 130.517,49.448 130.351,50.448 130.5,51.5C 129.167,49.5 129.167,47.5 130.5,45.5 Z"/></g>
<g><path style="opacity:1" fill="#c2c2c2" d="M 145.5,44.5 C 146.885,45.5736 148.051,46.9069 149,48.5C 149.483,47.552 149.649,46.552 149.5,45.5C 150.833,47.5 150.833,49.5 149.5,51.5C 148.685,50.5707 147.852,49.5707 147,48.5C 146.768,49.7375 146.268,50.7375 145.5,51.5C 145.5,49.1667 145.5,46.8333 145.5,44.5 Z"/></g>
<g><path style="opacity:1" fill="#141414" d="M 153.5,48.5 C 154.978,48.238 156.311,48.5713 157.5,49.5C 156.833,49.8333 156.167,50.1667 155.5,50.5C 154.287,50.2528 153.62,49.5862 153.5,48.5 Z"/></g>
<g><path style="opacity:1" fill="#b1b1b1" d="M 74.5,44.5 C 74.631,45.2389 74.4643,45.9056 74,46.5C 72.8173,45.269 71.6507,45.269 70.5,46.5C 71.9905,47.2436 73.4905,47.9103 75,48.5C 75.4696,49.5768 75.3029,50.5768 74.5,51.5C 73.3991,52.5983 72.0657,52.765 70.5,52C 69.5494,51.2825 69.3828,50.4491 70,49.5C 71.1827,50.731 72.3493,50.731 73.5,49.5C 72.3112,48.5713 70.9778,48.238 69.5,48.5C 69.5,47.1667 69.5,45.8333 69.5,44.5C 71.1667,44.5 72.8333,44.5 74.5,44.5 Z"/></g>
<g><path style="opacity:1" fill="#aeaeae" d="M 98.5,44.5 C 99.8333,44.5 101.167,44.5 102.5,44.5C 102.649,45.552 102.483,46.552 102,47.5C 100.989,46.6634 99.8221,46.33 98.5,46.5C 98.5,47.8333 98.5,49.1667 98.5,50.5C 100.109,50.0941 101.443,50.0941 102.5,50.5C 101.38,52.5962 99.8803,52.9295 98,51.5C 97.2967,49.0709 97.4634,46.7375 98.5,44.5 Z"/></g>
<g><path style="opacity:1" fill="#353535" d="M 128.5,44.5 C 129.492,44.3284 130.158,44.6618 130.5,45.5C 129.167,47.5 129.167,49.5 130.5,51.5C 127.833,52.8333 125.167,52.8333 122.5,51.5C 124.527,51.6621 126.527,51.4955 128.5,51C 124.068,50.3772 123.735,49.3772 127.5,48C 126.376,47.7508 125.376,47.2508 124.5,46.5C 125.949,45.8281 127.282,45.1614 128.5,44.5 Z"/></g>
<g><path style="opacity:1" fill="#515151" d="M 149.5,45.5 C 150.209,44.596 151.209,44.2627 152.5,44.5C 152.5,46.8333 152.5,49.1667 152.5,51.5C 155.833,51.5 159.167,51.5 162.5,51.5C 158.167,52.8333 153.833,52.8333 149.5,51.5C 150.833,49.5 150.833,47.5 149.5,45.5 Z"/></g>
<g><path style="opacity:1" fill="#efe7b9" d="M 22.5,81.5 C 14.5421,84.2378 14.5421,86.9045 22.5,89.5C 22.7148,91.1788 22.0481,92.1788 20.5,92.5C 15.1854,94.8774 15.1854,97.2107 20.5,99.5C 22.0481,99.8212 22.7148,100.821 22.5,102.5C 19.7277,102.595 17.7277,103.929 16.5,106.5C 17.1882,107.855 18.1882,108.855 19.5,109.5C 21.5,109.5 22.5,110.5 22.5,112.5C 15.0904,114.598 14.7571,117.265 21.5,120.5C 22.4912,127.313 22.8245,134.313 22.5,141.5C 17.1667,141.5 11.8333,141.5 6.5,141.5C 6.5,113.5 6.5,85.5 6.5,57.5C 11.8333,57.5 17.1667,57.5 22.5,57.5C 22.5,65.5 22.5,73.5 22.5,81.5 Z"/></g>
<g><path style="opacity:1" fill="#ece4b6" d="M 37.5,57.5 C 37.8222,63.358 37.4889,69.0247 36.5,74.5C 31.6943,76.2411 31.361,78.5744 35.5,81.5C 37.4809,94.1237 38.1476,107.124 37.5,120.5C 33.6212,120.668 32.2878,122.335 33.5,125.5C 34.287,127.104 35.6203,127.771 37.5,127.5C 37.5,132.167 37.5,136.833 37.5,141.5C 32.8333,141.5 28.1667,141.5 23.5,141.5C 23.1697,134.468 23.503,127.468 24.5,120.5C 28.1813,119.729 29.1813,117.729 27.5,114.5C 26.2638,113.754 24.9305,113.421 23.5,113.5C 23.5,112.167 23.5,110.833 23.5,109.5C 26.2605,110.085 27.9272,109.085 28.5,106.5C 26.5274,104.358 24.8608,102.025 23.5,99.5C 28.478,99.0477 29.478,96.8811 26.5,93C 25.552,92.5172 24.552,92.3505 23.5,92.5C 23.3505,91.448 23.5172,90.448 24,89.5C 31.4454,86.4176 31.2787,84.0842 23.5,82.5C 23.5,74.1667 23.5,65.8333 23.5,57.5C 28.1667,57.5 32.8333,57.5 37.5,57.5 Z"/></g>
<g><path style="opacity:1" fill="#efe7b8" d="M 39.5,57.5 C 44.1667,57.5 48.8333,57.5 53.5,57.5C 53.5,65.5 53.5,73.5 53.5,81.5C 51.847,81.6596 50.5137,82.3263 49.5,83.5C 47.7864,87.1656 49.1197,89.1656 53.5,89.5C 54.1318,97.5729 53.4651,105.24 51.5,112.5C 47.5,114.833 47.5,117.167 51.5,119.5C 53.4633,126.424 54.1299,133.757 53.5,141.5C 48.8333,141.5 44.1667,141.5 39.5,141.5C 39.5,136.833 39.5,132.167 39.5,127.5C 42.1268,127.707 43.7935,126.54 44.5,124C 43.8307,122.153 42.4974,120.986 40.5,120.5C 39.5009,107.517 39.1675,94.5171 39.5,81.5C 42.1268,81.7067 43.7935,80.54 44.5,78C 43.8307,76.1525 42.4974,74.9858 40.5,74.5C 39.5046,68.8722 39.1712,63.2055 39.5,57.5 Z"/></g>
<g><path style="opacity:1" fill="#e7dfb2" d="M 56.5,82.5 C 56.1583,81.6618 55.4916,81.3284 54.5,81.5C 54.5,73.5 54.5,65.5 54.5,57.5C 59.5,57.5 64.5,57.5 69.5,57.5C 69.5,85.5 69.5,113.5 69.5,141.5C 64.5,141.5 59.5,141.5 54.5,141.5C 54.5,134.167 54.5,126.833 54.5,119.5C 58.7875,119.442 60.1209,117.442 58.5,113.5C 57.2638,112.754 55.9305,112.421 54.5,112.5C 54.5,104.5 54.5,96.5 54.5,88.5C 57.2776,88.9783 59.2776,87.9783 60.5,85.5C 59.7174,83.7118 58.3841,82.7118 56.5,82.5 Z"/></g>
<g><path style="opacity:1" fill="#f1e9ba" d="M 84.5,57.5 C 84.5,65.8333 84.5,74.1667 84.5,82.5C 83.209,82.2627 82.209,82.596 81.5,83.5C 78.6939,86.246 79.3606,88.246 83.5,89.5C 84.7574,90.6226 84.4241,91.2893 82.5,91.5C 78.6337,93.7414 78.6337,96.0747 82.5,98.5C 84.4364,102.715 85.1031,107.381 84.5,112.5C 79.9724,112.841 78.6391,115.008 80.5,119C 81.745,119.791 83.0783,120.291 84.5,120.5C 84.5,127.5 84.5,134.5 84.5,141.5C 79.8333,141.5 75.1667,141.5 70.5,141.5C 70.5,113.5 70.5,85.5 70.5,57.5C 75.1667,57.5 79.8333,57.5 84.5,57.5 Z"/></g>
<g><path style="opacity:1" fill="#efe7b8" d="M 86.5,57.5 C 90.8333,57.5 95.1667,57.5 99.5,57.5C 99.666,62.8437 99.4994,68.1771 99,73.5C 98.0053,74.0659 97.172,74.7326 96.5,75.5C 93.8333,76.8333 93.8333,78.1667 96.5,79.5C 97.172,80.2674 98.0053,80.9341 99,81.5C 99.6667,86.1667 99.6667,90.8333 99,95.5C 98.0053,96.0659 97.172,96.7326 96.5,97.5C 93.8333,98.8333 93.8333,100.167 96.5,101.5C 96.811,102.478 97.4777,103.145 98.5,103.5C 99.4959,109.463 99.8293,115.463 99.5,121.5C 99.1667,121.5 98.8333,121.5 98.5,121.5C 93.1854,123.877 93.1854,126.211 98.5,128.5C 100.43,132.373 101.097,136.706 100.5,141.5C 95.8333,141.5 91.1667,141.5 86.5,141.5C 86.3337,134.492 86.5004,127.492 87,120.5C 93.1301,117.47 92.9634,115.137 86.5,113.5C 86.1725,108.456 86.5059,103.456 87.5,98.5C 89.4974,98.0142 90.8307,96.8475 91.5,95C 90.3125,93.0559 88.6458,91.5559 86.5,90.5C 87.6554,89.0495 89.1554,88.0495 91,87.5C 91.5003,84.1621 90.0003,82.4954 86.5,82.5C 86.5,74.1667 86.5,65.8333 86.5,57.5 Z"/></g>
<g><path style="opacity:1" fill="#efe7b9" d="M 115.5,57.5 C 116.135,66.2337 115.468,74.5671 113.5,82.5C 109.5,84.8333 109.5,87.1667 113.5,89.5C 115.43,93.3727 116.097,97.706 115.5,102.5C 110.972,102.841 109.639,105.008 111.5,109C 112.901,109.41 114.234,109.91 115.5,110.5C 115.715,112.179 115.048,113.179 113.5,113.5C 109.361,116.426 109.694,118.759 114.5,120.5C 115.491,127.313 115.825,134.313 115.5,141.5C 110.833,141.5 106.167,141.5 101.5,141.5C 101.5,137.167 101.5,132.833 101.5,128.5C 106.493,128.003 107.493,125.836 104.5,122C 103.552,121.517 102.552,121.351 101.5,121.5C 101.171,115.463 101.504,109.463 102.5,103.5C 106.275,102.538 107.275,100.371 105.5,97C 104.207,96.51 102.873,96.3433 101.5,96.5C 101.334,91.4889 101.501,86.4889 102,81.5C 106.189,80.8715 107.355,78.7048 105.5,75C 104.207,74.51 102.873,74.3433 101.5,74.5C 101.5,68.8333 101.5,63.1667 101.5,57.5C 106.167,57.5 110.833,57.5 115.5,57.5 Z"/></g>
<g><path style="opacity:1" fill="#403e35" d="M 115.5,57.5 C 116.167,57.5 116.833,57.5 117.5,57.5C 117.5,65.8333 117.5,74.1667 117.5,82.5C 118.791,82.2627 119.791,82.596 120.5,83.5C 119.167,84.8333 117.833,86.1667 116.5,87.5C 116.5,86.1667 116.5,84.8333 116.5,83.5C 115.209,83.7373 114.209,83.404 113.5,82.5C 115.468,74.5671 116.135,66.2337 115.5,57.5 Z"/></g>
<g><path style="opacity:1" fill="#f0e8ba" d="M 117.5,57.5 C 121.5,57.5 125.5,57.5 129.5,57.5C 129.5,85.5 129.5,113.5 129.5,141.5C 125.5,141.5 121.5,141.5 117.5,141.5C 117.17,134.468 117.503,127.468 118.5,120.5C 122.74,119.285 123.407,117.118 120.5,114C 119.552,113.517 118.552,113.351 117.5,113.5C 117.5,112.167 117.5,110.833 117.5,109.5C 123.674,108.13 124.008,105.797 118.5,102.5C 117.167,98.1667 117.167,93.8333 118.5,89.5C 122.675,88.3201 123.342,86.3201 120.5,83.5C 119.791,82.596 118.791,82.2627 117.5,82.5C 117.5,74.1667 117.5,65.8333 117.5,57.5 Z"/></g>
<g><path style="opacity:1" fill="#474537" d="M 129.5,57.5 C 130.167,57.5 130.833,57.5 131.5,57.5C 131.5,85.5 131.5,113.5 131.5,141.5C 130.833,141.5 130.167,141.5 129.5,141.5C 129.5,113.5 129.5,85.5 129.5,57.5 Z"/></g>
<g><path style="opacity:1" fill="#eee6b8" d="M 131.5,57.5 C 135.833,57.5 140.167,57.5 144.5,57.5C 144.5,63.5 144.5,69.5 144.5,75.5C 143.833,75.5 143.167,75.5 142.5,75.5C 137.167,77.8333 137.167,80.1667 142.5,82.5C 144.048,82.8212 144.715,83.8212 144.5,85.5C 136.5,88.1667 136.5,90.8333 144.5,93.5C 144.5,94.5 144.5,95.5 144.5,96.5C 141.832,96.8337 139.832,98.1671 138.5,100.5C 139.188,101.855 140.188,102.855 141.5,103.5C 143.759,104.344 144.759,106.011 144.5,108.5C 143.5,108.5 142.5,108.5 141.5,108.5C 137.344,111.384 137.678,113.718 142.5,115.5C 144.176,116.183 144.843,117.517 144.5,119.5C 142.847,119.66 141.514,120.326 140.5,121.5C 137.833,122.833 137.833,124.167 140.5,125.5C 141.514,126.674 142.847,127.34 144.5,127.5C 144.5,132.167 144.5,136.833 144.5,141.5C 140.167,141.5 135.833,141.5 131.5,141.5C 131.5,113.5 131.5,85.5 131.5,57.5 Z"/></g>
<g><path style="opacity:1" fill="#ece4b6" d="M 159.5,57.5 C 160.12,63.9262 159.453,69.9262 157.5,75.5C 153.5,77.8333 153.5,80.1667 157.5,82.5C 159.436,86.7147 160.103,91.3814 159.5,96.5C 154.972,96.8411 153.639,99.0078 155.5,103C 156.745,103.791 158.078,104.291 159.5,104.5C 159.5,109.5 159.5,114.5 159.5,119.5C 154.972,119.841 153.639,122.008 155.5,126C 156.745,126.791 158.078,127.291 159.5,127.5C 159.5,132.167 159.5,136.833 159.5,141.5C 154.833,141.5 150.167,141.5 145.5,141.5C 145.5,136.5 145.5,131.5 145.5,126.5C 150.159,126.985 151.492,125.152 149.5,121C 148.207,120.51 146.873,120.343 145.5,120.5C 145.5,118.833 145.5,117.167 145.5,115.5C 148.272,115.405 150.272,114.071 151.5,111.5C 150.061,109.447 148.061,108.447 145.5,108.5C 145.5,106.833 145.5,105.167 145.5,103.5C 148.278,103.978 150.278,102.978 151.5,100.5C 149.698,98.4354 147.698,96.6021 145.5,95C 147.46,93.4107 149.126,91.5774 150.5,89.5C 150.392,88.5581 150.059,87.7247 149.5,87C 146.553,86.8882 145.22,85.3882 145.5,82.5C 149.788,82.4418 151.121,80.4418 149.5,76.5C 148.264,75.7542 146.93,75.4208 145.5,75.5C 145.5,69.5 145.5,63.5 145.5,57.5C 150.167,57.5 154.833,57.5 159.5,57.5 Z"/></g>
<g><path style="opacity:1" fill="#f0e8b9" d="M 161.5,57.5 C 166.167,57.5 170.833,57.5 175.5,57.5C 176.12,63.9262 175.453,69.9262 173.5,75.5C 168.167,77.8333 168.167,80.1667 173.5,82.5C 175.436,86.7147 176.103,91.3814 175.5,96.5C 170.972,96.8411 169.639,99.0078 171.5,103C 172.745,103.791 174.078,104.291 175.5,104.5C 175.5,109.5 175.5,114.5 175.5,119.5C 170.972,119.841 169.639,122.008 171.5,126C 172.745,126.791 174.078,127.291 175.5,127.5C 175.5,132.167 175.5,136.833 175.5,141.5C 170.833,141.5 166.167,141.5 161.5,141.5C 161.5,136.5 161.5,131.5 161.5,126.5C 167.674,125.13 168.008,122.797 162.5,119.5C 161.505,114.208 161.172,108.875 161.5,103.5C 167.674,102.13 168.008,99.7969 162.5,96.5C 161.167,91.8333 161.167,87.1667 162.5,82.5C 167.833,80.1667 167.833,77.8333 162.5,75.5C 161.504,69.5368 161.171,63.5368 161.5,57.5 Z"/></g>
<g><path style="opacity:1" fill="#ebe3b5" d="M 176.5,57.5 C 181.5,57.5 186.5,57.5 191.5,57.5C 191.5,85.5 191.5,113.5 191.5,141.5C 186.5,141.5 181.5,141.5 176.5,141.5C 176.334,136.821 176.501,132.155 177,127.5C 184.333,124.833 184.333,122.167 177,119.5C 176.333,114.5 176.333,109.5 177,104.5C 184.333,101.833 184.333,99.1667 177,96.5C 176.501,91.8452 176.334,87.1785 176.5,82.5C 180.788,82.4418 182.121,80.4418 180.5,76.5C 179.264,75.7542 177.93,75.4208 176.5,75.5C 176.5,69.5 176.5,63.5 176.5,57.5 Z"/></g>
<g><path style="opacity:1" fill="#838176" d="M 99.5,57.5 C 100.167,63.1667 100.833,68.8333 101.5,74.5C 104.446,76.9225 104.113,78.5891 100.5,79.5C 100.5,78.1667 100.5,76.8333 100.5,75.5C 99.1667,75.5 97.8333,75.5 96.5,75.5C 97.172,74.7326 98.0053,74.0659 99,73.5C 99.4994,68.1771 99.666,62.8437 99.5,57.5 Z"/></g>
<g><path style="opacity:1" fill="#a5a5a2" d="M 36.5,74.5 C 40.6362,77.4327 40.3028,79.766 35.5,81.5C 31.361,78.5744 31.6943,76.2411 36.5,74.5 Z"/></g>
<g><path style="opacity:1" fill="#cbcbca" d="M 96.5,75.5 C 97.8333,75.5 99.1667,75.5 100.5,75.5C 100.5,76.8333 100.5,78.1667 100.5,79.5C 99.1667,79.5 97.8333,79.5 96.5,79.5C 93.8333,78.1667 93.8333,76.8333 96.5,75.5 Z"/></g>
<g><path style="opacity:1" fill="#a7a6a2" d="M 142.5,75.5 C 147.772,77.6884 147.772,80.0217 142.5,82.5C 137.167,80.1667 137.167,77.8333 142.5,75.5 Z"/></g>
<g><path style="opacity:1" fill="#a7a6a1" d="M 173.5,75.5 C 178.772,77.6884 178.772,80.0217 173.5,82.5C 168.167,80.1667 168.167,77.8333 173.5,75.5 Z"/></g>
<g><path style="opacity:1" fill="#acacab" d="M 157.5,75.5 C 158.209,76.404 159.209,76.7373 160.5,76.5C 160.5,78.1667 160.5,79.8333 160.5,81.5C 159.209,81.2627 158.209,81.596 157.5,82.5C 153.5,80.1667 153.5,77.8333 157.5,75.5 Z"/></g>
<g><path style="opacity:1" fill="#0a0a08" d="M 101.5,74.5 C 102.873,74.3433 104.207,74.51 105.5,75C 107.355,78.7048 106.189,80.8715 102,81.5C 101.501,86.4889 101.334,91.4889 101.5,96.5C 100.511,91.0247 100.178,85.358 100.5,79.5C 104.113,78.5891 104.446,76.9225 101.5,74.5 Z"/></g>
<g><path style="opacity:1" fill="#3c3b31" d="M 37.5,57.5 C 38.1667,57.5 38.8333,57.5 39.5,57.5C 39.1712,63.2055 39.5046,68.8722 40.5,74.5C 42.4974,74.9858 43.8307,76.1525 44.5,78C 43.7935,80.54 42.1268,81.7067 39.5,81.5C 39.1675,94.5171 39.5009,107.517 40.5,120.5C 42.4974,120.986 43.8307,122.153 44.5,124C 43.7935,126.54 42.1268,127.707 39.5,127.5C 39.5,132.167 39.5,136.833 39.5,141.5C 38.8333,141.5 38.1667,141.5 37.5,141.5C 37.5,136.833 37.5,132.167 37.5,127.5C 35.6203,127.771 34.287,127.104 33.5,125.5C 35.1667,125.5 36.8333,125.5 38.5,125.5C 38.634,123.708 38.3007,122.042 37.5,120.5C 38.1476,107.124 37.4809,94.1237 35.5,81.5C 40.3028,79.766 40.6362,77.4327 36.5,74.5C 37.4889,69.0247 37.8222,63.358 37.5,57.5 Z"/></g>
<g><path style="opacity:1" fill="#52514d" d="M 53.5,81.5 C 53.8333,82.8333 54.1667,82.8333 54.5,81.5C 55.4916,81.3284 56.1583,81.6618 56.5,82.5C 55.846,83.1847 55.846,84.1847 56.5,85.5C 56.2528,86.7133 55.5862,87.38 54.5,87.5C 54.5,86.1667 54.5,84.8333 54.5,83.5C 52.8333,83.5 51.1667,83.5 49.5,83.5C 50.5137,82.3263 51.847,81.6596 53.5,81.5 Z"/></g>
<g><path style="opacity:1" fill="#35332b" d="M 159.5,57.5 C 160.167,57.5 160.833,57.5 161.5,57.5C 161.171,63.5368 161.504,69.5368 162.5,75.5C 167.833,77.8333 167.833,80.1667 162.5,82.5C 161.167,87.1667 161.167,91.8333 162.5,96.5C 168.008,99.7969 167.674,102.13 161.5,103.5C 161.172,108.875 161.505,114.208 162.5,119.5C 168.008,122.797 167.674,125.13 161.5,126.5C 161.5,131.5 161.5,136.5 161.5,141.5C 160.833,141.5 160.167,141.5 159.5,141.5C 159.5,136.833 159.5,132.167 159.5,127.5C 162.167,124.833 162.167,122.167 159.5,119.5C 159.5,114.5 159.5,109.5 159.5,104.5C 162.167,101.833 162.167,99.1667 159.5,96.5C 160.103,91.3814 159.436,86.7147 157.5,82.5C 158.209,81.596 159.209,81.2627 160.5,81.5C 160.5,79.8333 160.5,78.1667 160.5,76.5C 159.209,76.7373 158.209,76.404 157.5,75.5C 159.453,69.9262 160.12,63.9262 159.5,57.5 Z"/></g>
<g><path style="opacity:1" fill="#9e9e9c" d="M 81.5,83.5 C 88.4635,83.7205 89.1301,85.7205 83.5,89.5C 79.3606,88.246 78.6939,86.246 81.5,83.5 Z"/></g>
<g><path style="opacity:1" fill="#989896" d="M 22.5,81.5 C 24.3167,83.0122 25.3167,85.0122 25.5,87.5C 23.8212,87.2852 22.8212,87.9519 22.5,89.5C 14.5421,86.9045 14.5421,84.2378 22.5,81.5 Z"/></g>
<g><path style="opacity:1" fill="#a7a6a4" d="M 49.5,83.5 C 51.1667,83.5 52.8333,83.5 54.5,83.5C 54.5,84.8333 54.5,86.1667 54.5,87.5C 53.6618,87.8417 53.3284,88.5084 53.5,89.5C 49.1197,89.1656 47.7864,87.1656 49.5,83.5 Z"/></g>
<g><path style="opacity:1" fill="#b0b0ae" d="M 113.5,82.5 C 114.209,83.404 115.209,83.7373 116.5,83.5C 116.5,84.8333 116.5,86.1667 116.5,87.5C 115.5,88.1667 114.5,88.8333 113.5,89.5C 109.5,87.1667 109.5,84.8333 113.5,82.5 Z"/></g>
<g><path style="opacity:1" fill="#9e9e9a" d="M 144.5,85.5 C 145.456,86.6594 146.456,87.8261 147.5,89C 146.445,90.5072 145.445,92.0072 144.5,93.5C 136.5,90.8333 136.5,88.1667 144.5,85.5 Z"/></g>
<g><path style="opacity:1" fill="#a09f9d" d="M 82.5,91.5 C 89.0978,93.6603 89.0978,95.9936 82.5,98.5C 78.6337,96.0747 78.6337,93.7414 82.5,91.5 Z"/></g>
<g><path style="opacity:1" fill="#acaba5" d="M 20.5,92.5 C 24.5,94.8333 24.5,97.1667 20.5,99.5C 15.1854,97.2107 15.1854,94.8774 20.5,92.5 Z"/></g>
<g><path style="opacity:1" fill="#7f7d74" d="M 96.5,79.5 C 97.8333,79.5 99.1667,79.5 100.5,79.5C 100.178,85.358 100.511,91.0247 101.5,96.5C 104.446,98.9225 104.113,100.589 100.5,101.5C 100.5,100.167 100.5,98.8333 100.5,97.5C 99.1667,97.5 97.8333,97.5 96.5,97.5C 97.172,96.7326 98.0053,96.0659 99,95.5C 99.6667,90.8333 99.6667,86.1667 99,81.5C 98.0053,80.9341 97.172,80.2674 96.5,79.5 Z"/></g>
<g><path style="opacity:1" fill="#cbcbca" d="M 96.5,97.5 C 97.8333,97.5 99.1667,97.5 100.5,97.5C 100.5,98.8333 100.5,100.167 100.5,101.5C 99.1667,101.5 97.8333,101.5 96.5,101.5C 93.8333,100.167 93.8333,98.8333 96.5,97.5 Z"/></g>
<g><path style="opacity:1" fill="#abaaa8" d="M 144.5,96.5 C 146.081,98.1417 146.747,100.142 146.5,102.5C 144.585,102.216 142.919,102.549 141.5,103.5C 140.188,102.855 139.188,101.855 138.5,100.5C 139.832,98.1671 141.832,96.8337 144.5,96.5 Z"/></g>
<g><path style="opacity:1" fill="#9a9a98" d="M 175.5,96.5 C 178.161,99.1793 178.161,101.846 175.5,104.5C 174.078,104.291 172.745,103.791 171.5,103C 169.639,99.0078 170.972,96.8411 175.5,96.5 Z"/></g>
<g><path style="opacity:1" fill="#a4a4a1" d="M 159.5,96.5 C 162.167,99.1667 162.167,101.833 159.5,104.5C 158.078,104.291 156.745,103.791 155.5,103C 153.639,99.0078 154.972,96.8411 159.5,96.5 Z"/></g>
<g><path style="opacity:1" fill="#928d74" d="M 96.5,101.5 C 97.8333,101.5 99.1667,101.5 100.5,101.5C 100.824,108.354 100.491,115.021 99.5,121.5C 99.8293,115.463 99.4959,109.463 98.5,103.5C 97.4777,103.145 96.811,102.478 96.5,101.5 Z"/></g>
<g><path style="opacity:1" fill="#2c2b25" d="M 120.5,83.5 C 123.342,86.3201 122.675,88.3201 118.5,89.5C 117.167,93.8333 117.167,98.1667 118.5,102.5C 124.008,105.797 123.674,108.13 117.5,109.5C 117.5,110.833 117.5,112.167 117.5,113.5C 118.552,113.351 119.552,113.517 120.5,114C 123.407,117.118 122.74,119.285 118.5,120.5C 117.503,127.468 117.17,134.468 117.5,141.5C 116.833,141.5 116.167,141.5 115.5,141.5C 115.825,134.313 115.491,127.313 114.5,120.5C 118.636,117.567 118.303,115.234 113.5,113.5C 115.048,113.179 115.715,112.179 115.5,110.5C 118.167,107.833 118.167,105.167 115.5,102.5C 116.097,97.706 115.43,93.3727 113.5,89.5C 114.5,88.8333 115.5,88.1667 116.5,87.5C 117.833,86.1667 119.167,84.8333 120.5,83.5 Z"/></g>
<g><path style="opacity:1" fill="#acaba9" d="M 22.5,102.5 C 24.3445,106.16 23.3445,108.494 19.5,109.5C 18.1882,108.855 17.1882,107.855 16.5,106.5C 17.7277,103.929 19.7277,102.595 22.5,102.5 Z"/></g>
<g><path style="opacity:1" fill="#a2a19f" d="M 115.5,102.5 C 118.167,105.167 118.167,107.833 115.5,110.5C 114.234,109.91 112.901,109.41 111.5,109C 109.639,105.008 110.972,102.841 115.5,102.5 Z"/></g>
<g><path style="opacity:1" fill="#1c1b19" d="M 142.5,75.5 C 143.167,75.5 143.833,75.5 144.5,75.5C 144.833,75.5 145.167,75.5 145.5,75.5C 146.93,75.4208 148.264,75.7542 149.5,76.5C 151.121,80.4418 149.788,82.4418 145.5,82.5C 145.22,85.3882 146.553,86.8882 149.5,87C 150.059,87.7247 150.392,88.5581 150.5,89.5C 149.126,91.5774 147.46,93.4107 145.5,95C 147.698,96.6021 149.698,98.4354 151.5,100.5C 150.278,102.978 148.278,103.978 145.5,103.5C 145.5,105.167 145.5,106.833 145.5,108.5C 148.061,108.447 150.061,109.447 151.5,111.5C 150.272,114.071 148.272,115.405 145.5,115.5C 145.5,117.167 145.5,118.833 145.5,120.5C 144.833,120.5 144.5,120.167 144.5,119.5C 144.843,117.517 144.176,116.183 142.5,115.5C 146.636,112.567 146.303,110.234 141.5,108.5C 142.5,108.5 143.5,108.5 144.5,108.5C 144.759,106.011 143.759,104.344 141.5,103.5C 142.919,102.549 144.585,102.216 146.5,102.5C 146.747,100.142 146.081,98.1417 144.5,96.5C 144.5,95.5 144.5,94.5 144.5,93.5C 145.445,92.0072 146.445,90.5072 147.5,89C 146.456,87.8261 145.456,86.6594 144.5,85.5C 144.715,83.8212 144.048,82.8212 142.5,82.5C 147.772,80.0217 147.772,77.6884 142.5,75.5 Z"/></g>
<g><path style="opacity:1" fill="#aeada8" d="M 141.5,108.5 C 146.303,110.234 146.636,112.567 142.5,115.5C 137.678,113.718 137.344,111.384 141.5,108.5 Z"/></g>
<g><path style="opacity:1" fill="#b8b8b6" d="M 51.5,112.5 C 55.5,114.833 55.5,117.167 51.5,119.5C 47.5,117.167 47.5,114.833 51.5,112.5 Z"/></g>
<g><path style="opacity:1" fill="#9c9b99" d="M 84.5,112.5 C 87.1614,115.179 87.1614,117.846 84.5,120.5C 83.0783,120.291 81.745,119.791 80.5,119C 78.6391,115.008 79.9724,112.841 84.5,112.5 Z"/></g>
<g><path style="opacity:1" fill="#9b9b99" d="M 22.5,112.5 C 24.3167,114.012 25.3167,116.012 25.5,118.5C 23.6203,118.229 22.287,118.896 21.5,120.5C 14.7571,117.265 15.0904,114.598 22.5,112.5 Z"/></g>
<g><path style="opacity:1" fill="#a9a9a7" d="M 113.5,113.5 C 118.303,115.234 118.636,117.567 114.5,120.5C 109.694,118.759 109.361,116.426 113.5,113.5 Z"/></g>
<g><path style="opacity:1" fill="#38372d" d="M 84.5,57.5 C 85.1667,57.5 85.8333,57.5 86.5,57.5C 86.5,65.8333 86.5,74.1667 86.5,82.5C 90.0003,82.4954 91.5003,84.1621 91,87.5C 89.1554,88.0495 87.6554,89.0495 86.5,90.5C 88.6458,91.5559 90.3125,93.0559 91.5,95C 90.8307,96.8475 89.4974,98.0142 87.5,98.5C 86.5059,103.456 86.1725,108.456 86.5,113.5C 92.9634,115.137 93.1301,117.47 87,120.5C 86.5004,127.492 86.3337,134.492 86.5,141.5C 85.8333,141.5 85.1667,141.5 84.5,141.5C 84.5,134.5 84.5,127.5 84.5,120.5C 87.1614,117.846 87.1614,115.179 84.5,112.5C 85.1031,107.381 84.4364,102.715 82.5,98.5C 89.0978,95.9936 89.0978,93.6603 82.5,91.5C 84.4241,91.2893 84.7574,90.6226 83.5,89.5C 89.1301,85.7205 88.4635,83.7205 81.5,83.5C 82.209,82.596 83.209,82.2627 84.5,82.5C 84.5,74.1667 84.5,65.8333 84.5,57.5 Z"/></g>
<g><path style="opacity:1" fill="#11100f" d="M 145.5,120.5 C 146.873,120.343 148.207,120.51 149.5,121C 151.492,125.152 150.159,126.985 145.5,126.5C 148.002,124.39 148.002,122.39 145.5,120.5 Z"/></g>
<g><path style="opacity:1" fill="#747471" d="M 144.5,119.5 C 144.5,120.167 144.833,120.5 145.5,120.5C 148.002,122.39 148.002,124.39 145.5,126.5C 144.833,126.5 144.5,126.833 144.5,127.5C 142.847,127.34 141.514,126.674 140.5,125.5C 141.833,125.5 143.167,125.5 144.5,125.5C 144.5,124.167 144.5,122.833 144.5,121.5C 143.167,121.5 141.833,121.5 140.5,121.5C 141.514,120.326 142.847,119.66 144.5,119.5 Z"/></g>
<g><path style="opacity:1" fill="#9b9b99" d="M 175.5,119.5 C 178.161,122.179 178.161,124.846 175.5,127.5C 174.078,127.291 172.745,126.791 171.5,126C 169.639,122.008 170.972,119.841 175.5,119.5 Z"/></g>
<g><path style="opacity:1" fill="#aaa9a5" d="M 98.5,121.5 C 102.5,123.833 102.5,126.167 98.5,128.5C 93.1854,126.211 93.1854,123.877 98.5,121.5 Z"/></g>
<g><path style="opacity:1" fill="#bfbebb" d="M 140.5,121.5 C 141.833,121.5 143.167,121.5 144.5,121.5C 144.5,122.833 144.5,124.167 144.5,125.5C 143.167,125.5 141.833,125.5 140.5,125.5C 137.833,124.167 137.833,122.833 140.5,121.5 Z"/></g>
<g><path style="opacity:1" fill="#bdbcbb" d="M 37.5,120.5 C 38.3007,122.042 38.634,123.708 38.5,125.5C 36.8333,125.5 35.1667,125.5 33.5,125.5C 32.2878,122.335 33.6212,120.668 37.5,120.5 Z"/></g>
<g><path style="opacity:1" fill="#a5a4a2" d="M 159.5,119.5 C 162.167,122.167 162.167,124.833 159.5,127.5C 158.078,127.291 156.745,126.791 155.5,126C 153.639,122.008 154.972,119.841 159.5,119.5 Z"/></g>
<g><path style="opacity:1" fill="#797979" d="M 40.5,154.5 C 40.1667,154.5 39.8333,154.5 39.5,154.5C 38.2072,152.636 38.2072,150.636 39.5,148.5C 40.4656,150.396 40.7989,152.396 40.5,154.5 Z"/></g>
<g><path style="opacity:1" fill="#eaeaea" d="M 49.5,153.5 C 50.1667,153.5 50.5,153.167 50.5,152.5C 50.3433,151.127 50.51,149.793 51,148.5C 51.8141,150.902 51.6474,153.235 50.5,155.5C 49.7025,155.043 49.3691,154.376 49.5,153.5 Z"/></g>
<g><path style="opacity:1" fill="#e9e9e9" d="M 100.5,148.5 C 105.041,148.331 105.374,148.998 101.5,150.5C 105.311,151.738 105.311,152.404 101.5,152.5C 101.649,153.552 101.483,154.552 101,155.5C 100.503,153.19 100.337,150.857 100.5,148.5 Z"/></g>
<g><path style="opacity:1" fill="#b4b4b4" d="M 122.5,149.5 C 121.5,149.5 120.5,149.5 119.5,149.5C 119.5,151.167 119.5,152.833 119.5,154.5C 120.5,154.5 121.5,154.5 122.5,154.5C 119.676,156.201 118.009,155.367 117.5,152C 118.009,148.633 119.676,147.799 122.5,149.5 Z"/></g>
<g><path style="opacity:1" fill="#393939" d="M 122.5,149.5 C 123.833,151.167 123.833,152.833 122.5,154.5C 121.5,154.5 120.5,154.5 119.5,154.5C 119.5,152.833 119.5,151.167 119.5,149.5C 120.5,149.5 121.5,149.5 122.5,149.5 Z"/></g>
<g><path style="opacity:1" fill="#3c3c3c" d="M 133.5,148.5 C 134.167,148.5 134.833,148.5 135.5,148.5C 137.148,150.456 137.815,152.789 137.5,155.5C 137.167,155.5 136.833,155.5 136.5,155.5C 135.754,153.657 134.421,152.324 132.5,151.5C 133.167,151.167 133.833,150.833 134.5,150.5C 134.137,149.817 133.804,149.15 133.5,148.5 Z"/></g>
<g><path style="opacity:1" fill="#c3c3c3" d="M 135.5,148.5 C 137.5,148.5 139.5,148.5 141.5,148.5C 141.5,150.5 141.5,152.5 141.5,154.5C 140.837,152.958 140.17,151.291 139.5,149.5C 138.831,151.631 138.165,153.631 137.5,155.5C 137.815,152.789 137.148,150.456 135.5,148.5 Z"/></g>
<g><path style="opacity:1" fill="#acacac" d="M 154.5,154.5 C 153.85,154.804 153.183,155.137 152.5,155.5C 151.719,154.271 151.219,152.938 151,151.5C 149.711,156.784 148.378,156.784 147,151.5C 146.433,155.243 144.6,156.243 141.5,154.5C 142.5,154.5 143.5,154.5 144.5,154.5C 144.5,152.5 144.5,150.5 144.5,148.5C 147.388,148.22 148.888,149.553 149,152.5C 150.333,147.167 151.667,147.167 153,152.5C 153.29,150.956 153.956,149.623 155,148.5C 154.865,150.425 154.698,152.425 154.5,154.5 Z"/></g>
<g><path style="opacity:1" fill="#9e9e9e" d="M 50.5,152.5 C 50.5,153.167 50.1667,153.5 49.5,153.5C 48.8826,153.389 48.3826,153.056 48,152.5C 47.7508,153.624 47.2508,154.624 46.5,155.5C 44.1363,155.564 41.803,155.231 39.5,154.5C 39.8333,154.5 40.1667,154.5 40.5,154.5C 41.5,154.5 42.5,154.5 43.5,154.5C 43.1924,152.076 43.5258,149.743 44.5,147.5C 47.1412,148.51 49.1412,150.176 50.5,152.5 Z"/></g>
<g><path style="opacity:1" fill="#c4c4c4" d="M 70.5,149.5 C 71.6225,151.288 71.7891,153.288 71,155.5C 69.6667,152.833 68.3333,152.833 67,155.5C 66.5034,153.19 66.3367,150.857 66.5,148.5C 68.099,148.232 69.4324,148.566 70.5,149.5 Z"/></g>
<g><path style="opacity:1" fill="#1d1d1d" d="M 70.5,149.5 C 70.0517,151.465 69.0517,151.798 67.5,150.5C 68.325,149.614 69.325,149.281 70.5,149.5 Z"/></g>
<g><path style="opacity:1" fill="#a6a6a6" d="M 82.5,155.5 C 82.5,153.5 82.5,151.5 82.5,149.5C 81.5,149.5 80.5,149.5 79.5,149.5C 79.5,151.5 79.5,153.5 79.5,155.5C 78.5318,153.393 78.1984,151.059 78.5,148.5C 81.8066,148.063 84.8066,148.73 87.5,150.5C 88.4776,150.023 89.3109,149.357 90,148.5C 89.3433,150.731 88.5099,153.065 87.5,155.5C 85.4387,148.946 83.772,148.946 82.5,155.5 Z"/></g>
<g><path style="opacity:1" fill="#666666" d="M 82.5,155.5 C 81.6981,154.048 81.1981,152.382 81,150.5C 80.8019,152.382 80.3019,154.048 79.5,155.5C 79.5,153.5 79.5,151.5 79.5,149.5C 80.5,149.5 81.5,149.5 82.5,149.5C 82.5,151.5 82.5,153.5 82.5,155.5 Z"/></g>
<g><path style="opacity:1" fill="#bfbfbf" d="M 133.5,148.5 C 133.804,149.15 134.137,149.817 134.5,150.5C 133.833,150.833 133.167,151.167 132.5,151.5C 134.421,152.324 135.754,153.657 136.5,155.5C 134.337,154.28 132.17,154.28 130,155.5C 128.14,153.085 126.474,153.085 125,155.5C 124.503,153.19 124.337,150.857 124.5,148.5C 126.167,148.5 127.833,148.5 129.5,148.5C 129.338,150.527 129.505,152.527 130,154.5C 130.716,152.121 131.883,150.121 133.5,148.5 Z"/></g>
<g><path style="opacity:1" fill="#191919" d="M 125.5,149.5 C 126.675,149.281 127.675,149.614 128.5,150.5C 126.948,151.798 125.948,151.465 125.5,149.5 Z"/></g>
<g><path style="opacity:1" fill="#a6a6a6" d="M 154.5,154.5 C 155.751,152.618 156.918,150.618 158,148.5C 159.544,150.468 160.711,152.635 161.5,155C 159.016,154.617 156.682,154.45 154.5,154.5 Z"/></g>
<g><path style="opacity:1" fill="#b0b0b0" d="M 52.5,148.5 C 55.0495,148.561 56.5495,149.894 57,152.5C 58.1882,151.437 58.6882,150.103 58.5,148.5C 60.8568,148.337 63.1902,148.503 65.5,149C 61.5,150 61.5,151 65.5,152C 61.5,153 61.5,154 65.5,155C 63.8659,155.494 62.1992,155.66 60.5,155.5C 60.6125,149.169 59.6125,149.169 57.5,155.5C 56.4164,154.335 55.5831,153.002 55,151.5C 54.7811,152.938 54.2811,154.271 53.5,155.5C 52.5258,153.257 52.1924,150.924 52.5,148.5 Z"/></g>
<g><path style="opacity:1" fill="#c6c6c6" d="M 108.5,148.5 C 110.888,149.219 112.388,150.885 113,153.5C 113.36,151.579 114.194,149.912 115.5,148.5C 116.647,150.765 116.814,153.098 116,155.5C 115.667,154.5 115.333,153.5 115,152.5C 113.667,156.5 112.333,156.5 111,152.5C 110.751,153.624 110.251,154.624 109.5,155.5C 108.526,153.257 108.192,150.924 108.5,148.5 Z"/></g>
<g><path style="opacity:1" fill="#d6d6d6" d="M 72.5,148.5 C 74.1667,148.5 75.8333,148.5 77.5,148.5C 77.5,150.833 77.5,153.167 77.5,155.5C 75.8333,155.5 74.1667,155.5 72.5,155.5C 72.5,153.167 72.5,150.833 72.5,148.5 Z"/></g>
<g><path style="opacity:1" fill="#0a0a0a" d="M 73.5,152.5 C 74.675,152.281 75.675,152.614 76.5,153.5C 74.9483,154.798 73.9483,154.465 73.5,152.5 Z"/></g>
<g><path style="opacity:1" fill="#191919" d="M 73.5,149.5 C 74.675,149.281 75.675,149.614 76.5,150.5C 74.9483,151.798 73.9483,151.465 73.5,149.5 Z"/></g>
<g><path style="opacity:1" fill="#cbcbcb" d="M 98.5,149.5 C 99.4614,151.265 99.7947,153.265 99.5,155.5C 93.8419,156.321 92.1752,154.154 94.5,149C 96.0657,148.235 97.3991,148.402 98.5,149.5 Z"/></g>
<g><path style="opacity:1" fill="#101010" d="M 98.5,149.5 C 98.5,151.167 98.5,152.833 98.5,154.5C 97.5,154.5 96.5,154.5 95.5,154.5C 95.5,152.833 95.5,151.167 95.5,149.5C 96.5,149.5 97.5,149.5 98.5,149.5 Z"/></g>
</svg>
