<?xml version="1.0" encoding="UTF-8"?>
<!DOCTYPE svg PUBLIC "-//W3C//DTD SVG 1.1//EN" "http://www.w3.org/Graphics/SVG/1.1/DTD/svg11.dtd">
<svg xmlns="http://www.w3.org/2000/svg" version="1.1" width="477px" height="106px" style="shape-rendering:geometricPrecision; text-rendering:geometricPrecision; image-rendering:optimizeQuality; fill-rule:evenodd; clip-rule:evenodd" xmlns:xlink="http://www.w3.org/1999/xlink">
<g><path style="opacity:1" fill="#fdfdfd" d="M -0.5,-0.5 C 80.8333,-0.5 162.167,-0.5 243.5,-0.5C 243.5,34.8333 243.5,70.1667 243.5,105.5C 183.5,105.5 123.5,105.5 63.5,105.5C 71.8704,82.8893 80.537,60.3893 89.5,38C 84.8452,37.5008 80.1785,37.3342 75.5,37.5C 67.7008,60.2305 59.7008,82.8972 51.5,105.5C 34.1667,105.5 16.8333,105.5 -0.5,105.5C -0.5,84.5 -0.5,63.5 -0.5,42.5C 1.29652,46.56 3.96319,50.06 7.5,53C 14.6206,56.1476 21.6206,59.4809 28.5,63C 32.3191,70.6952 29.9858,75.3619 21.5,77C 14.5698,78.1319 8.06977,76.9652 2,73.5C 1.50098,77.8206 1.33432,82.1539 1.5,86.5C 12.2105,89.3304 22.8772,89.1637 33.5,86C 44.879,79.3399 48.0457,69.8399 43,57.5C 41.4033,54.7808 39.2366,52.6141 36.5,51C 29.7151,48.1862 23.0484,45.1862 16.5,42C 12.8168,35.4486 14.4834,30.7819 21.5,28C 28.0568,27.1224 34.3901,27.9557 40.5,30.5C 41.4909,26.5546 41.8242,22.5546 41.5,18.5C 31.4111,15.9124 21.4111,16.079 11.5,19C 5.23136,22.0811 1.23136,26.9144 -0.5,33.5C -0.5,22.1667 -0.5,10.8333 -0.5,-0.5 Z"/></g>
<g><path style="opacity:1" fill="#fdfefe" d="M 245.5,-0.5 C 322.5,-0.5 399.5,-0.5 476.5,-0.5C 476.5,19.8333 476.5,40.1667 476.5,60.5C 474.594,55.8782 471.594,52.0449 467.5,49C 459.112,45.7906 450.612,42.9573 442,40.5C 440.729,36.8339 441.896,34.3339 445.5,33C 448.833,32.3333 452.167,32.3333 455.5,33C 456.38,34.3561 456.714,35.8561 456.5,37.5C 457.167,38.1667 457.833,38.8333 458.5,39.5C 463.056,41.4417 468.056,42.1083 473.5,41.5C 474.105,34.3818 473.438,27.5485 471.5,21C 459.567,17.0038 447.567,16.6704 435.5,20C 422.235,27.0184 418.735,37.5184 425,51.5C 427.383,54.2728 430.217,56.4395 433.5,58C 441.113,60.2753 448.613,62.7753 456,65.5C 456.667,67.1667 456.667,68.8333 456,70.5C 453.104,72.6087 449.938,74.1087 446.5,75C 451.388,76.9005 455.554,75.7338 459,71.5C 460.89,66.0044 459.057,62.5044 453.5,61C 443.425,59.8694 434.591,56.036 427,49.5C 421.601,34.799 426.434,25.299 441.5,21C 451.021,20.0111 460.355,20.8444 469.5,23.5C 470.494,28.456 470.827,33.456 470.5,38.5C 466.833,38.5 463.167,38.5 459.5,38.5C 459.802,35.9407 459.468,33.6074 458.5,31.5C 451.964,28.2537 445.798,28.9203 440,33.5C 437.538,37.8689 438.371,41.3689 442.5,44C 449.545,45.8445 456.545,47.8445 463.5,50C 470.13,53.2569 473.463,58.5902 473.5,66C 472.604,76.5736 466.937,83.2403 456.5,86C 445.976,87.1744 435.643,86.3411 425.5,83.5C 424.679,80.5535 424.179,77.5535 424,74.5C 422.644,73.6198 421.144,73.2865 419.5,73.5C 417.685,78.8127 414.018,82.3127 408.5,84C 399.559,85.3459 390.559,85.8459 381.5,85.5C 381.5,86.5 381.5,87.5 381.5,88.5C 389.174,88.6664 396.841,88.4997 404.5,88C 411.292,87.0222 416.792,83.8556 421,78.5C 421.497,80.8098 421.663,83.1432 421.5,85.5C 433.601,89.6105 445.934,90.4439 458.5,88C 467.682,85.3166 473.682,79.4833 476.5,70.5C 476.5,82.1667 476.5,93.8333 476.5,105.5C 399.5,105.5 322.5,105.5 245.5,105.5C 245.5,70.1667 245.5,34.8333 245.5,-0.5 Z"/></g>
<g><path style="opacity:1" fill="#cccfd1" d="M 243.5,-0.5 C 244.167,-0.5 244.833,-0.5 245.5,-0.5C 245.5,34.8333 245.5,70.1667 245.5,105.5C 244.833,105.5 244.167,105.5 243.5,105.5C 243.5,70.1667 243.5,34.8333 243.5,-0.5 Z"/></g>
<g><path style="opacity:1" fill="#727a82" d="M -0.5,42.5 C -0.5,39.5 -0.5,36.5 -0.5,33.5C 1.23136,26.9144 5.23136,22.0811 11.5,19C 21.4111,16.079 31.4111,15.9124 41.5,18.5C 41.8242,22.5546 41.4909,26.5546 40.5,30.5C 34.3901,27.9557 28.0568,27.1224 21.5,28C 14.4834,30.7819 12.8168,35.4486 16.5,42C 23.0484,45.1862 29.7151,48.1862 36.5,51C 39.2366,52.6141 41.4033,54.7808 43,57.5C 48.0457,69.8399 44.879,79.3399 33.5,86C 22.8772,89.1637 12.2105,89.3304 1.5,86.5C 1.33432,82.1539 1.50098,77.8206 2,73.5C 8.06977,76.9652 14.5698,78.1319 21.5,77C 29.9858,75.3619 32.3191,70.6952 28.5,63C 21.6206,59.4809 14.6206,56.1476 7.5,53C 3.96319,50.06 1.29652,46.56 -0.5,42.5 Z"/></g>
<g><path style="opacity:1" fill="#61acdd" d="M 401.5,19.5 C 389.833,19.5 378.167,19.5 366.5,19.5C 366.5,24.1667 366.5,28.8333 366.5,33.5C 365.513,28.6946 365.179,23.6946 365.5,18.5C 377.678,18.1716 389.678,18.5049 401.5,19.5 Z"/></g>
<g><path style="opacity:1" fill="#7fbbe3" d="M 268.5,19.5 C 277.652,18.5064 286.985,18.1731 296.5,18.5C 296.821,23.6946 296.487,28.6946 295.5,33.5C 295.5,28.8333 295.5,24.1667 295.5,19.5C 286.5,19.5 277.5,19.5 268.5,19.5 Z"/></g>
<g><path style="opacity:1" fill="#83bce4" d="M 268.5,25.5 C 266.631,27.6353 265.964,30.3019 266.5,33.5C 265.523,30.7131 265.19,27.7131 265.5,24.5C 266.791,24.2627 267.791,24.596 268.5,25.5 Z"/></g>
<g><path style="opacity:1" fill="#449dd7" d="M 368.5,30.5 C 370.833,30.5 373.167,30.5 375.5,30.5C 375.5,45.8333 375.5,61.1667 375.5,76.5C 373.833,76.5 372.167,76.5 370.5,76.5C 371.568,75.5655 372.901,75.2322 374.5,75.5C 374.5,60.8333 374.5,46.1667 374.5,31.5C 372.265,31.7947 370.265,31.4614 368.5,30.5 Z"/></g>
<g><path style="opacity:1" fill="#278ed3" d="M 458.5,39.5 C 462.702,39.8168 466.702,39.4834 470.5,38.5C 470.827,33.456 470.494,28.456 469.5,23.5C 460.355,20.8444 451.021,20.0111 441.5,21C 426.434,25.299 421.601,34.799 427,49.5C 434.591,56.036 443.425,59.8694 453.5,61C 459.057,62.5044 460.89,66.0044 459,71.5C 455.554,75.7338 451.388,76.9005 446.5,75C 449.938,74.1087 453.104,72.6087 456,70.5C 456.667,68.8333 456.667,67.1667 456,65.5C 448.613,62.7753 441.113,60.2753 433.5,58C 430.217,56.4395 427.383,54.2728 425,51.5C 418.735,37.5184 422.235,27.0184 435.5,20C 447.567,16.6704 459.567,17.0038 471.5,21C 473.438,27.5485 474.105,34.3818 473.5,41.5C 468.056,42.1083 463.056,41.4417 458.5,39.5 Z"/></g>
<g><path style="opacity:1" fill="#727a82" d="M 35.5,36.5 C 47.2926,35.823 56.126,40.823 62,51.5C 63.7175,60.8745 62.0509,69.5411 57,77.5C 54.5362,61.2342 47.3696,47.5675 35.5,36.5 Z"/></g>
<g><path style="opacity:1" fill="#727a82" d="M 189.5,36.5 C 211.996,35.4949 222.496,46.1616 221,68.5C 215.647,84.6033 204.481,91.1033 187.5,88C 173.057,82.9611 166.891,72.7944 169,57.5C 171.334,46 178.168,39 189.5,36.5 Z"/></g>
<g><path style="opacity:1" fill="#737b83" d="M 101.5,36.5 C 108.48,36.1521 115.313,36.8188 122,38.5C 122.824,41.8823 122.657,45.2156 121.5,48.5C 115.987,46.55 110.32,46.05 104.5,47C 101.833,49.6667 101.833,52.3333 104.5,55C 109.58,56.8043 114.58,58.8043 119.5,61C 125.181,67.1243 126.014,73.9576 122,81.5C 118.748,85.366 114.581,87.5327 109.5,88C 103.017,88.9793 96.6841,88.4793 90.5,86.5C 89.1667,83.1667 89.1667,79.8333 90.5,76.5C 96.8311,79.9608 103.164,80.1275 109.5,77C 112.377,73.2844 111.711,70.2844 107.5,68C 102.617,66.9278 97.9499,65.2612 93.5,63C 88.3771,57.6648 87.2104,51.4982 90,44.5C 93.1496,40.6893 96.983,38.0226 101.5,36.5 Z"/></g>
<g><path style="opacity:1" fill="#727a82" d="M 146.5,36.5 C 152.863,36.407 159.196,36.7403 165.5,37.5C 165.823,41.226 165.489,44.8927 164.5,48.5C 151.237,43.7545 143.904,48.4212 142.5,62.5C 144.069,77.0572 151.736,81.7239 165.5,76.5C 166.489,80.1073 166.823,83.774 166.5,87.5C 139.356,92.1883 127.189,80.855 130,53.5C 133.019,45.3156 138.519,39.649 146.5,36.5 Z"/></g>
<g><path style="opacity:1" fill="#727a82" d="M 63.5,105.5 C 59.5,105.5 55.5,105.5 51.5,105.5C 59.7008,82.8972 67.7008,60.2305 75.5,37.5C 80.1785,37.3342 84.8452,37.5008 89.5,38C 80.537,60.3893 71.8704,82.8893 63.5,105.5 Z"/></g>
<g><path style="opacity:1" fill="#b0d5ee" d="M 458.5,31.5 C 459.468,33.6074 459.802,35.9407 459.5,38.5C 463.167,38.5 466.833,38.5 470.5,38.5C 466.702,39.4834 462.702,39.8168 458.5,39.5C 457.833,38.8333 457.167,38.1667 456.5,37.5C 458.308,36.0821 458.975,34.0821 458.5,31.5 Z"/></g>
<g><path style="opacity:1" fill="#bdc1c4" d="M 223.5,36.5 C 227.976,36.8222 229.476,39.1556 228,43.5C 224.458,46.3267 221.958,45.4933 220.5,41C 221.315,39.3566 222.315,37.8566 223.5,36.5 Z"/></g>
<g><path style="opacity:1" fill="#fcfcfc" d="M 190.5,46.5 C 204.867,46.8364 210.367,54.1698 207,68.5C 203.917,77.9575 197.75,80.7908 188.5,77C 185.533,74.8995 183.7,72.0662 183,68.5C 180.405,59.2292 182.905,51.8959 190.5,46.5 Z"/></g>
<g><path style="opacity:1" fill="#258fd3" d="M 366.5,33.5 C 366.5,28.8333 366.5,24.1667 366.5,19.5C 378.167,19.5 389.833,19.5 401.5,19.5C 416.686,21.1896 422.519,29.5229 419,44.5C 417.623,46.7538 416.123,48.9205 414.5,51C 418.914,54.2329 421.914,58.3996 423.5,63.5C 429.167,63.5 434.833,63.5 440.5,63.5C 440.5,66.8333 440.5,70.1667 440.5,73.5C 443.988,73.8991 444.154,74.5658 441,75.5C 439.893,75.4148 438.893,75.0814 438,74.5C 437.503,71.854 437.336,69.1873 437.5,66.5C 432.167,66.5 426.833,66.5 421.5,66.5C 419.92,57.0241 414.254,52.1907 404.5,52C 414.676,49.4701 418.842,42.9701 417,32.5C 414.768,27.2694 410.935,23.7694 405.5,22C 393.171,21.5001 380.838,21.3335 368.5,21.5C 368.5,24.5 368.5,27.5 368.5,30.5C 370.265,31.4614 372.265,31.7947 374.5,31.5C 374.5,46.1667 374.5,60.8333 374.5,75.5C 372.901,75.2322 371.568,75.5655 370.5,76.5C 362.615,58.8748 355.282,40.8748 348.5,22.5C 343.281,21.1958 338.114,21.1958 333,22.5C 325.736,40.1266 318.569,57.7933 311.5,75.5C 303.528,76.4977 295.528,76.831 287.5,76.5C 287.5,61.1667 287.5,45.8333 287.5,30.5C 289.5,30.5 291.5,30.5 293.5,30.5C 293.5,27.5 293.5,24.5 293.5,21.5C 284.808,21.8314 276.141,21.498 267.5,20.5C 267.624,19.8933 267.957,19.56 268.5,19.5C 277.5,19.5 286.5,19.5 295.5,19.5C 295.5,24.1667 295.5,28.8333 295.5,33.5C 293.833,33.5 292.167,33.5 290.5,33.5C 290.5,46.8333 290.5,60.1667 290.5,73.5C 296.868,73.8297 303.202,73.4963 309.5,72.5C 316.833,54.8333 324.167,37.1667 331.5,19.5C 337.798,18.5037 344.132,18.1703 350.5,18.5C 356.904,37.0417 363.904,55.375 371.5,73.5C 372.499,60.1833 372.833,46.85 372.5,33.5C 370.5,33.5 368.5,33.5 366.5,33.5 Z"/></g>
<g><path style="opacity:1" fill="#3694d5" d="M 339.5,31.5 C 341.996,38.9963 344.329,46.663 346.5,54.5C 344.143,54.6633 341.81,54.4966 339.5,54C 339.043,53.586 338.709,53.086 338.5,52.5C 339.689,51.5713 341.022,51.238 342.5,51.5C 342.101,48.3043 341.101,45.3043 339.5,42.5C 337.514,45.9558 336.014,49.6225 335,53.5C 333.817,54.731 332.651,54.731 331.5,53.5C 334.773,46.3456 337.439,39.0123 339.5,31.5 Z"/></g>
<g><path style="opacity:1" fill="#208ed2" d="M 388.5,30.5 C 392.915,30.3054 397.249,30.8054 401.5,32C 405.432,36.5959 405.432,41.2626 401.5,46C 399.466,47.2053 397.466,47.372 395.5,46.5C 397.22,45.0803 399.054,43.747 401,42.5C 403.497,38.6489 402.663,35.8155 398.5,34C 396.19,33.5034 393.857,33.3367 391.5,33.5C 391.5,38.1667 391.5,42.8333 391.5,47.5C 390.5,47.5 389.5,47.5 388.5,47.5C 388.5,41.8333 388.5,36.1667 388.5,30.5 Z"/></g>
<g><path style="opacity:1" fill="#208ed3" d="M 388.5,58.5 C 392.846,58.3343 397.179,58.501 401.5,59C 405.238,60.3989 406.904,63.0655 406.5,67C 406.961,70.5448 405.628,73.2115 402.5,75C 397.934,76.3092 393.267,76.8092 388.5,76.5C 388.5,70.5 388.5,64.5 388.5,58.5 Z"/></g>
<g><path style="opacity:1" fill="#f8fbfd" d="M 391.5,60.5 C 396.447,59.6276 400.613,60.9609 404,64.5C 405.041,67.6363 404.207,70.1363 401.5,72C 398.312,73.3158 394.978,73.8158 391.5,73.5C 391.5,69.1667 391.5,64.8333 391.5,60.5 Z"/></g>
<g><path style="opacity:1" fill="#2a90d3" d="M 458.5,31.5 C 458.975,34.0821 458.308,36.0821 456.5,37.5C 456.714,35.8561 456.38,34.3561 455.5,33C 452.167,32.3333 448.833,32.3333 445.5,33C 441.896,34.3339 440.729,36.8339 442,40.5C 450.612,42.9573 459.112,45.7906 467.5,49C 471.594,52.0449 474.594,55.8782 476.5,60.5C 476.5,63.8333 476.5,67.1667 476.5,70.5C 473.682,79.4833 467.682,85.3166 458.5,88C 445.934,90.4439 433.601,89.6105 421.5,85.5C 421.663,83.1432 421.497,80.8098 421,78.5C 416.792,83.8556 411.292,87.0222 404.5,88C 396.841,88.4997 389.174,88.6664 381.5,88.5C 381.5,87.5 381.5,86.5 381.5,85.5C 390.559,85.8459 399.559,85.3459 408.5,84C 414.018,82.3127 417.685,78.8127 419.5,73.5C 421.144,73.2865 422.644,73.6198 424,74.5C 424.179,77.5535 424.679,80.5535 425.5,83.5C 435.643,86.3411 445.976,87.1744 456.5,86C 466.937,83.2403 472.604,76.5736 473.5,66C 473.463,58.5902 470.13,53.2569 463.5,50C 456.545,47.8445 449.545,45.8445 442.5,44C 438.371,41.3689 437.538,37.8689 440,33.5C 445.798,28.9203 451.964,28.2537 458.5,31.5 Z"/></g>
<g><path style="opacity:1" fill="#248fd3" d="M 268.5,25.5 C 268.5,27.1667 268.5,28.8333 268.5,30.5C 270.5,30.5 272.5,30.5 274.5,30.5C 274.5,45.8333 274.5,61.1667 274.5,76.5C 272.5,76.5 270.5,76.5 268.5,76.5C 268.5,79.5 268.5,82.5 268.5,85.5C 288.833,85.5 309.167,85.5 329.5,85.5C 329.5,82.5 329.5,79.5 329.5,76.5C 327.396,76.7989 325.396,76.4656 323.5,75.5C 325.073,71.6083 326.74,67.7749 328.5,64C 335.826,63.5003 343.159,63.3337 350.5,63.5C 351.229,67.6862 352.562,71.6862 354.5,75.5C 352.955,76.4519 351.288,76.7852 349.5,76.5C 349.5,79.5 349.5,82.5 349.5,85.5C 358.5,85.5 367.5,85.5 376.5,85.5C 376.5,86.5 376.5,87.5 376.5,88.5C 366.5,88.5 356.5,88.5 346.5,88.5C 346.5,83.5 346.5,78.5 346.5,73.5C 347.873,73.6567 349.207,73.49 350.5,73C 349.76,71.2151 349.093,69.3817 348.5,67.5C 342.202,66.5037 335.868,66.1703 329.5,66.5C 329.335,68.8268 328.669,70.9935 327.5,73C 329.134,73.4935 330.801,73.6602 332.5,73.5C 332.5,78.1667 332.5,82.8333 332.5,87.5C 310.5,87.5 288.5,87.5 266.5,87.5C 266.5,82.8333 266.5,78.1667 266.5,73.5C 268.167,73.5 269.833,73.5 271.5,73.5C 271.5,60.1667 271.5,46.8333 271.5,33.5C 269.833,33.5 268.167,33.5 266.5,33.5C 265.964,30.3019 266.631,27.6353 268.5,25.5 Z"/></g>
<g><path style="opacity:1" fill="#53a7dc" d="M 266.5,73.5 C 266.5,78.1667 266.5,82.8333 266.5,87.5C 288.5,87.5 310.5,87.5 332.5,87.5C 310.34,88.4974 288.006,88.8308 265.5,88.5C 265.179,83.3054 265.513,78.3054 266.5,73.5 Z"/></g>
</svg>
